<?xml version="1.0" encoding="utf-8"?>
<!-- Generator: Adobe Illustrator 15.1.0, SVG Export Plug-In . SVG Version: 6.00 Build 0)  -->
<!DOCTYPE svg PUBLIC "-//W3C//DTD SVG 1.1//EN" "http://www.w3.org/Graphics/SVG/1.1/DTD/svg11.dtd">
<svg version="1.1" id="Layer_1" xmlns="http://www.w3.org/2000/svg" xmlns:xlink="http://www.w3.org/1999/xlink" x="0px" y="0px"
	 width="1002.508px" height="254.728px" viewBox="0 0 1002.508 254.728" enable-background="new 0 0 1002.508 254.728"
	 xml:space="preserve">
<g>
	<g>
		<defs>
			<path id="SVGID_1_" d="M5.788,37.94c-4.335,2.377-6.586,7.327-5.53,12.156c2.733,12.497,7.959,26.727,15.533,42.295
				c1.306,2.683,3.633,4.732,6.46,5.686c2.828,0.954,5.919,0.735,8.584-0.609c36.87-18.593,70.688-27.631,103.388-27.631
				c29.696,0,60.315,7.454,93.302,22.749c-3.266,6.115-6.868,12.378-10.778,18.745c-28.474-10.927-55.555-16.25-82.524-16.25
				c-29.729,0-59.597,6.47-91.312,19.781c-3.041,1.276-5.36,3.834-6.335,6.985c-0.975,3.149-0.505,6.57,1.284,9.34
				c8.5,13.168,17.862,26.18,27.826,38.669c2.837,3.552,7.546,5.029,11.902,3.729c19.274-5.751,38.329-8.667,56.634-8.667
				s37.36,2.916,56.634,8.667c1.063,0.316,2.136,0.468,3.191,0.468c4.803,0,9.236-3.127,10.679-7.964
				c1.761-5.899-1.594-12.109-7.495-13.87c-21.344-6.367-42.544-9.598-63.009-9.598c-18.114,0-36.803,2.53-55.659,7.527
				c-4.983-6.453-9.787-13.031-14.377-19.683c24.229-8.795,47.256-13.09,70.036-13.09c26.708,0,53.754,5.902,82.682,18.045
				c4.986,2.091,10.751,0.306,13.681-4.234c8.61-13.336,16.035-26.39,22.07-38.796c2.666-5.481,0.437-12.088-5.006-14.831
				c-40.055-20.202-77.159-30.02-113.427-30.02c-33.113,0-66.921,8.185-103.037,24.981c-2.933-6.791-5.293-13.185-7.059-19.132
				c28.98-15.266,66.562-31.094,110.096-31.094c47.455,0,87.837,18.808,117.715,35.192c5.398,2.96,12.176,0.984,15.135-4.415
				c2.961-5.396,0.983-12.174-4.414-15.134C230.451,20.276,186.743,0,134.225,0S38,20.276,5.788,37.94"/>
		</defs>
		<clipPath id="SVGID_2_">
			<use xlink:href="#SVGID_1_"  overflow="visible"/>
		</clipPath>
		
			<linearGradient id="SVGID_3_" gradientUnits="userSpaceOnUse" x1="-572.3818" y1="1110.9644" x2="-571.6208" y2="1110.9644" gradientTransform="matrix(-9.600000e-006 -220.61 -220.61 9.600000e-006 245224.4844 -126031.8594)">
			<stop  offset="0" style="stop-color:#E72777"/>
			<stop  offset="1" style="stop-color:#662880"/>
		</linearGradient>
		<rect x="-0.798" clip-path="url(#SVGID_2_)" fill="url(#SVGID_3_)" width="270.833" height="174.886"/>
	</g>
	<g>
		<defs>
			<path id="SVGID_4_" d="M120.544,218.749c0-1.757,0.326-3.456,0.957-5.042c4.317-0.417,8.579-0.628,12.724-0.628
				c4.142,0,8.404,0.211,12.725,0.63c0.631,1.585,0.959,3.283,0.959,5.04c0,7.545-6.139,13.683-13.684,13.683
				C126.681,232.432,120.544,226.294,120.544,218.749 M113.35,192.208c-2.845,0.382-5.433,1.845-7.226,4.087
				c-5.08,6.351-7.876,14.325-7.876,22.454c0,19.838,16.14,35.979,35.977,35.979c19.839,0,35.979-16.141,35.979-35.979
				c0-8.131-2.798-16.105-7.878-22.455c-1.793-2.242-4.382-3.705-7.227-4.086c-7.073-0.946-14.096-1.426-20.874-1.426
				C127.44,190.782,120.417,191.262,113.35,192.208"/>
		</defs>
		<clipPath id="SVGID_5_">
			<use xlink:href="#SVGID_4_"  overflow="visible"/>
		</clipPath>
		
			<linearGradient id="SVGID_6_" gradientUnits="userSpaceOnUse" x1="-572.3813" y1="1110.9663" x2="-571.6198" y2="1110.9663" gradientTransform="matrix(-9.600000e-006 -220.6076 -220.6076 9.600000e-006 245221.8438 -126030.5)">
			<stop  offset="0" style="stop-color:#E72777"/>
			<stop  offset="1" style="stop-color:#662880"/>
		</linearGradient>
		<rect x="98.248" y="190.782" clip-path="url(#SVGID_5_)" fill="url(#SVGID_6_)" width="71.956" height="63.945"/>
	</g>
</g>
<g>
	<g>
		<path fill="#FFFFFF" d="M308.451,21.841c7.411-1.296,22.233-2.594,36.5-2.594c17.231,0,27.792,1.667,37.056,7.04
			c8.708,4.633,14.822,13.155,14.822,24.643c0,10.932-6.484,21.122-20.565,26.496v0.37c14.266,3.705,24.827,14.637,24.827,30.571
			c0,11.488-5.188,20.38-12.97,26.68c-9.078,7.226-24.271,11.302-49.099,11.302c-13.896,0-24.271-0.927-30.571-1.854V21.841z
			 M336.428,69.643h9.264c15.008,0,22.79-6.115,22.79-15.378c0-9.449-7.226-14.452-20.01-14.452c-6.299,0-9.819,0.371-12.043,0.742
			V69.643z M336.428,125.041c2.779,0.371,6.114,0.371,10.932,0.371c12.784,0,24.086-5.002,24.086-18.157
			c0-12.413-11.302-17.417-25.383-17.417h-9.635V125.041z"/>
		<path fill="#FFFFFF" d="M419.433,84.28c0-13.34-0.185-22.048-0.741-29.83h24.086l1.112,16.675h0.741
			c4.632-13.34,15.563-18.899,24.457-18.899c2.594,0,3.891,0.186,5.929,0.556v26.495c-2.224-0.371-4.446-0.741-7.596-0.741
			c-10.376,0-17.416,5.558-19.269,14.266c-0.371,1.853-0.556,4.076-0.556,6.299v45.95h-28.163V84.28z"/>
		<path fill="#FFFFFF" d="M577.846,98.731c0,33.165-23.529,48.357-47.801,48.357c-26.495,0-46.875-17.416-46.875-46.69
			c0-29.459,19.269-48.172,48.543-48.172C559.319,52.227,577.846,71.311,577.846,98.731z M512.258,99.658
			c0,15.563,6.485,27.236,18.527,27.236c11.117,0,17.974-10.931,17.974-27.421c0-13.34-5.188-27.05-17.974-27.05
			C517.446,72.423,512.258,86.318,512.258,99.658z"/>
		<path fill="#FFFFFF" d="M670.673,123.189c0,8.522,0.37,16.86,1.482,21.862h-25.384l-1.668-9.079h-0.555
			c-5.929,7.226-15.192,11.116-25.939,11.116c-18.343,0-29.274-13.339-29.274-27.791c0-23.531,21.122-34.646,53.176-34.646v-1.112
			c0-5.002-2.595-11.858-16.489-11.858c-9.264,0-19.085,3.15-25.014,6.855l-5.188-18.158c6.3-3.521,18.713-8.152,35.203-8.152
			c30.2,0,39.649,17.787,39.649,39.279V123.189z M643.437,102.252c-14.821,0-26.31,3.521-26.31,14.266
			c0,7.226,4.817,10.747,11.117,10.747c6.854,0,12.784-4.632,14.637-10.376c0.37-1.482,0.556-3.149,0.556-4.817V102.252z"/>
		<path fill="#FFFFFF" d="M780.917,13.504V118c0,10.191,0.37,20.936,0.74,27.051h-25.012l-1.112-13.155h-0.556
			c-5.559,10.005-16.674,15.192-28.349,15.192c-21.49,0-38.722-18.342-38.722-46.504c-0.186-30.571,18.898-48.358,40.576-48.358
			c11.302,0,19.824,4.077,23.9,10.19h0.37V13.504H780.917z M752.753,92.803c0-1.482,0-3.52-0.37-5.188
			c-1.668-7.411-7.781-13.711-16.49-13.711c-12.968,0-19.454,11.487-19.454,25.753c0,15.378,7.597,25.013,19.271,25.013
			c8.151,0,14.82-5.558,16.488-13.525c0.371-2.038,0.556-4.262,0.556-6.485V92.803z"/>
		<path fill="#FFFFFF" d="M832.61,29.252c0,7.782-5.743,14.081-15.192,14.081c-8.895,0-14.638-6.299-14.638-14.081
			c0-7.967,5.929-14.081,15.01-14.081C826.867,15.171,832.424,21.285,832.61,29.252z M803.521,145.051V54.45h28.163v90.601H803.521z
			"/>
		<path fill="#FFFFFF" d="M857.621,145.051v-69.85h-12.042V54.45h12.042V50.93c0-10.932,3.336-22.975,11.302-30.385
			c7.228-6.67,16.861-9.079,25.198-9.079c6.114,0,10.931,0.926,14.823,1.853l-1.112,21.678c-2.408-0.741-5.372-1.297-9.078-1.297
			c-9.265,0-13.156,7.226-13.156,16.119v4.632h18.158v20.751h-17.972v69.85H857.621z"/>
		<path fill="#FFFFFF" d="M938.586,54.45l13.525,44.651c1.483,5.188,3.336,12.044,4.447,16.861h0.741
			c1.111-5.003,2.594-11.673,3.892-17.045l11.301-44.467h30.016l-21.122,59.66c-12.97,36.13-21.677,50.396-31.867,59.475
			c-9.635,8.522-20.011,11.672-27.052,12.413l-6.113-23.715c3.521-0.741,7.967-2.409,12.228-4.817
			c4.262-2.224,9.08-6.855,11.672-11.303c0.927-1.481,1.484-2.964,1.484-4.076s-0.186-2.408-1.112-4.632L907.274,54.45H938.586z"/>
	</g>
	<g>
		<path fill="#FFFFFF" d="M352.241,224.817c-2.486,1.283-7.699,2.566-14.275,2.566c-15.238,0-26.626-9.624-26.626-27.429
			c0-17.002,11.469-28.391,28.23-28.391c6.657,0,10.987,1.443,12.832,2.406l-1.764,5.694c-2.566-1.283-6.336-2.246-10.827-2.246
			c-12.672,0-21.093,8.1-21.093,22.295c0,13.313,7.619,21.734,20.691,21.734c4.331,0,8.662-0.882,11.469-2.246L352.241,224.817z"/>
		<path fill="#FFFFFF" d="M395.072,206.771c0,14.356-10.025,20.612-19.328,20.612c-10.426,0-18.606-7.699-18.606-19.97
			c0-12.912,8.581-20.531,19.248-20.531C387.533,186.882,395.072,194.982,395.072,206.771z M364.355,207.173
			c0,8.501,4.812,14.917,11.709,14.917c6.737,0,11.79-6.336,11.79-15.078c0-6.576-3.288-14.837-11.629-14.837
			C367.964,192.175,364.355,199.875,364.355,207.173z"/>
		<path fill="#FFFFFF" d="M403.977,198.19c0-4.09-0.08-7.298-0.321-10.506h6.256l0.401,6.416h0.16
			c1.925-3.609,6.416-7.218,12.832-7.218c5.374,0,13.714,3.208,13.714,16.521v23.098h-7.058v-22.376
			c0-6.255-2.326-11.469-8.982-11.469c-4.571,0-8.18,3.289-9.463,7.218c-0.321,0.882-0.481,2.085-0.481,3.288v23.338h-7.058V198.19z
			"/>
		<path fill="#FFFFFF" d="M448.492,198.19c0-4.09-0.08-7.298-0.321-10.506h6.256l0.401,6.416h0.16
			c1.925-3.609,6.416-7.218,12.832-7.218c5.374,0,13.715,3.208,13.715,16.521v23.098h-7.058v-22.376
			c0-6.255-2.326-11.469-8.982-11.469c-4.571,0-8.18,3.289-9.463,7.218c-0.321,0.882-0.481,2.085-0.481,3.288v23.338h-7.058V198.19z
			"/>
		<path fill="#FFFFFF" d="M496.935,208.376c0.161,9.543,6.176,13.474,13.313,13.474c5.053,0,8.181-0.882,10.747-2.005l1.283,5.053
			c-2.486,1.123-6.817,2.486-12.993,2.486c-11.949,0-19.087-7.94-19.087-19.649c0-11.709,6.897-20.853,18.205-20.853
			c12.752,0,16.04,11.068,16.04,18.206c0,1.444-0.08,2.486-0.24,3.289H496.935z M517.627,203.323
			c0.08-4.411-1.845-11.389-9.785-11.389c-7.218,0-10.266,6.496-10.827,11.389H517.627z"/>
		<path fill="#FFFFFF" d="M560.858,225.138c-1.845,0.882-5.935,2.246-11.147,2.246c-11.709,0-19.328-7.94-19.328-19.81
			c0-11.95,8.181-20.692,20.852-20.692c4.171,0,7.86,1.043,9.784,2.085l-1.604,5.374c-1.685-0.882-4.331-1.845-8.181-1.845
			c-8.902,0-13.714,6.657-13.714,14.677c0,8.982,5.774,14.516,13.474,14.516c4.01,0,6.656-0.962,8.661-1.845L560.858,225.138z"/>
		<path fill="#FFFFFF" d="M578.664,178.381v9.303h10.105v5.374h-10.105v20.932c0,4.812,1.364,7.539,5.294,7.539
			c1.925,0,3.047-0.16,4.09-0.481l0.32,5.374c-1.363,0.481-3.528,0.962-6.255,0.962c-3.288,0-5.935-1.123-7.619-2.967
			c-1.925-2.166-2.727-5.614-2.727-10.186v-21.173h-6.016v-5.374h6.016v-7.218L578.664,178.381z"/>
		<path fill="#FFFFFF" d="M604.571,176.777c0,2.406-1.684,4.331-4.491,4.331c-2.566,0-4.25-1.925-4.25-4.331
			s1.765-4.411,4.411-4.411C602.807,172.366,604.571,174.291,604.571,176.777z M596.711,226.501v-38.817h7.058v38.817H596.711z"/>
		<path fill="#FFFFFF" d="M615.479,198.19c0-4.09-0.08-7.298-0.32-10.506h6.255l0.401,6.416h0.16
			c1.925-3.609,6.416-7.218,12.832-7.218c5.374,0,13.715,3.208,13.715,16.521v23.098h-7.058v-22.376
			c0-6.255-2.326-11.469-8.982-11.469c-4.571,0-8.181,3.289-9.464,7.218c-0.321,0.882-0.481,2.085-0.481,3.288v23.338h-7.058V198.19
			z"/>
		<path fill="#FFFFFF" d="M693.197,220.807c0,8.982-1.845,14.356-5.534,17.805c-3.85,3.448-9.303,4.651-14.195,4.651
			c-4.651,0-9.784-1.123-12.912-3.208l1.765-5.454c2.566,1.684,6.576,3.128,11.388,3.128c7.219,0,12.512-3.77,12.512-13.634v-4.25
			h-0.16c-2.086,3.609-6.336,6.497-12.352,6.497c-9.623,0-16.521-8.181-16.521-18.928c0-13.152,8.581-20.531,17.563-20.531
			c6.737,0,10.346,3.449,12.11,6.657h0.16l0.241-5.854h6.255c-0.24,2.727-0.32,5.935-0.32,10.586V220.807z M686.139,203.002
			c0-1.203-0.08-2.246-0.401-3.128c-1.283-4.17-4.651-7.539-9.864-7.539c-6.737,0-11.549,5.694-11.549,14.676
			c0,7.619,3.93,13.955,11.469,13.955c4.411,0,8.341-2.727,9.784-7.218c0.401-1.203,0.562-2.566,0.562-3.77V203.002z"/>
		<path fill="#FFFFFF" d="M730.413,226.501v-22.938l-17.162-31.117h8.02l7.619,14.917c2.005,4.09,3.689,7.378,5.373,11.148h0.16
			c1.444-3.529,3.369-7.058,5.454-11.148l7.779-14.917h7.859l-18.045,31.037v23.018H730.413z"/>
		<path fill="#FFFFFF" d="M790.567,206.771c0,14.356-10.025,20.612-19.328,20.612c-10.426,0-18.606-7.699-18.606-19.97
			c0-12.912,8.581-20.531,19.248-20.531C783.028,186.882,790.567,194.982,790.567,206.771z M759.85,207.173
			c0,8.501,4.813,14.917,11.709,14.917c6.737,0,11.79-6.336,11.79-15.078c0-6.576-3.288-14.837-11.63-14.837
			C763.459,192.175,759.85,199.875,759.85,207.173z"/>
		<path fill="#FFFFFF" d="M831.954,215.834c0,4.09,0.08,7.619,0.32,10.667h-6.256l-0.4-6.336h-0.16
			c-1.765,3.128-5.936,7.218-12.832,7.218c-6.096,0-13.394-3.449-13.394-17.002v-22.697h7.058v21.414
			c0,7.378,2.325,12.431,8.661,12.431c4.732,0,8.021-3.288,9.304-6.496c0.4-0.962,0.642-2.246,0.642-3.609v-23.739h7.058V215.834z"
			/>
		<path fill="#FFFFFF" d="M841.34,222.331c0-2.887,2.005-5.053,4.812-5.053s4.731,2.085,4.731,5.053
			c0,2.887-1.925,5.053-4.892,5.053C843.264,227.383,841.34,225.218,841.34,222.331z"/>
		<path fill="#FFFFFF" d="M857.942,222.331c0-2.887,2.005-5.053,4.812-5.053s4.731,2.085,4.731,5.053
			c0,2.887-1.925,5.053-4.892,5.053C859.866,227.383,857.942,225.218,857.942,222.331z"/>
		<path fill="#FFFFFF" d="M874.543,222.331c0-2.887,2.006-5.053,4.813-5.053s4.731,2.085,4.731,5.053
			c0,2.887-1.925,5.053-4.892,5.053C876.469,227.383,874.543,225.218,874.543,222.331z"/>
	</g>
</g>
</svg>
